#N canvas 0 22 1112 820 16;
#X obj 202 400 * 54000;
#X msg 202 429 \$1 54000;
#X obj 319 305 - 24;
#X obj 242 245 moses 24;
#X obj 396 394 * 54000;
#X msg 396 423 \$1 54000;
#X obj 396 452 t a b;
#X obj 202 458 t a b;
#X msg 443 482 set notes-high;
#X msg 249 487 set notes-low;
#X obj 319 276 moses 109;
#X obj 319 335 moses 44;
#X obj 396 364 - 44;
#X obj 349 640 tabplay~;
#X obj 242 215 inlet;
#X obj 349 669 outlet~;
#X text 432 208 takes in midi note number and plays the piano note
through the outlet;
#X connect 0 0 1 0;
#X connect 1 0 7 0;
#X connect 2 0 11 0;
#X connect 3 1 10 0;
#X connect 4 0 5 0;
#X connect 5 0 6 0;
#X connect 6 0 13 0;
#X connect 6 1 8 0;
#X connect 7 0 13 0;
#X connect 7 1 9 0;
#X connect 8 0 13 0;
#X connect 9 0 13 0;
#X connect 10 0 2 0;
#X connect 11 0 0 0;
#X connect 11 1 12 0;
#X connect 12 0 4 0;
#X connect 13 0 15 0;
#X connect 14 0 3 0;
