#N canvas 831 213 827 658 16;
#X obj 156 52 inlet;
#X obj 156 81 unpack f f f f;
#X obj 146 489 *~;
#X obj 224 420 vline~;
#X obj 408 38 loadbang;
#X msg 408 67 1;
#X obj 156 146 sig~;
#X obj 156 175 snapshot~;
#X obj 282 146 sig~;
#X obj 282 175 snapshot~;
#X floatatom 155 203 6 0 0 0 - - -, f 6;
#X floatatom 224 203 7 0 0 0 - - -, f 7;
#X obj 313 204 loadbang;
#X obj 407 97 metro 10;
#X msg 155 303 \$1 10;
#X msg 224 391 \$1 10;
#X msg 313 233 20000;
#X obj 155 332 line;
#X obj 155 361 osc~;
#X obj 146 518 throw~ out;
#X obj 155 231 mtof;
#X obj 224 362 * 2;
#X connect 0 0 1 0;
#X connect 1 0 6 0;
#X connect 1 1 8 0;
#X connect 2 0 19 0;
#X connect 3 0 2 1;
#X connect 4 0 5 0;
#X connect 5 0 13 0;
#X connect 6 0 7 0;
#X connect 7 0 10 0;
#X connect 8 0 9 0;
#X connect 9 0 11 0;
#X connect 10 0 20 0;
#X connect 11 0 21 0;
#X connect 12 0 16 0;
#X connect 13 0 9 0;
#X connect 13 0 7 0;
#X connect 14 0 17 0;
#X connect 15 0 3 0;
#X connect 17 0 18 0;
#X connect 18 0 2 0;
#X connect 20 0 14 0;
#X connect 21 0 15 0;
#X coords 0 -1 1 1 150 30 2 150 200;
