#N canvas 738 301 837 611 16;
#X obj 120 116 inlet;
#X text 201 115 midi note;
#X obj 139 209 f \$1;
#X text 21 209 channel;
#X obj 120 145 t b b f;
#X obj 137 376 pianosynth~;
#X obj 137 344 pack f 1;
#X obj 91 274 delay;
#X obj 137 314 f;
#X obj 139 238 * 25;
#X connect 0 0 4 0;
#X connect 2 0 9 0;
#X connect 4 0 7 0;
#X connect 4 1 2 0;
#X connect 4 2 8 1;
#X connect 6 0 5 0;
#X connect 7 0 8 0;
#X connect 8 0 6 0;
#X connect 9 0 7 1;
